# xmcd
#
# Track frame offsets: 
#        150
#        19315
#        34859
#        54967
#        57727
#        79066
#        84859
#        104502
#
# Disc length: 1621 seconds
#
# Revision: 0
# Processed by: cddbd v1.5.2PL0 Copyright (c) Steve Scherf et al.
# Submitted via: ExactAudioCopyFreeDBPlugin 1.0
#
DISCID=60065308
DTITLE=Eric Roberson - Wind
DYEAR=2017
DGENRE=R&B
TTITLE0=Claire
TTITLE1=Love Her
TTITLE2=Sky as Green
TTITLE3=Heart Said (Interlude)
TTITLE4=If Only
TTITLE5=Dreams My Dreams Dream About (Interlude)
TTITLE6=God in You
TTITLE7=Lyrics of Pleasure (feat. Will Downing)
EXTD=
EXTT0=
EXTT1=
EXTT2=
EXTT3=
EXTT4=
EXTT5=
EXTT6=
EXTT7=
PLAYORDER=
